<?xml version="1.0" encoding="UTF-8"?><svg id="Layer_1" xmlns="http://www.w3.org/2000/svg" viewBox="0 0 97.34 27"><defs><style>.cls-1{fill:#e62415;}.cls-1,.cls-2{fill-rule:evenodd;}.cls-2{fill:#17313b;}</style></defs><path class="cls-2" d="M95.34,10.28c-1.28-1.24-2.78-1.92-4.85-1.92-1.47,0-3.14.45-4.25,1.43V.07h-4.44v26.93h4.44v-10.09c0-4.12,3.02-4.45,4.08-4.45,2.65,0,2.58,2.41,2.58,3.86v10.67h4.44v-10.65c0-2.55-.55-4.66-2-6.07h0ZM75.85,21.53c-.97.84-2.25,1.31-3.65,1.31-3.09,0-5.36-2.2-5.36-5.22s2.2-5.12,5.36-5.12c1.38,0,2.68.44,3.67,1.29l.68.56,3-2.9-.75-.66c-1.76-1.54-4.1-2.41-6.59-2.41-5.56,0-9.59,3.88-9.59,9.22s4.13,9.33,9.59,9.33c2.54,0,4.9-.87,6.64-2.43l.73-.65-3.04-2.9-.68.58ZM58.55,2.27h-4.43v6.45h-3.32v4.3h3.32v13.98h4.43v-13.98h3.32v-4.3h-3.32V2.27ZM45.28,18.43c0,4.11-3.56,4.44-4.62,4.44-2.65,0-3.13-2.41-3.13-3.86v-10.29h-4.43v10.26c0,2.55.82,4.65,2.27,6.05,1.28,1.24,3.19,1.92,5.26,1.92,1.47,0,3.55-.44,4.66-1.43v1.47h4.43V8.73h-4.43v9.7ZM25.47,26.93h4.53V0h-4.53v26.93Z"/><path class="cls-1" d="M72.04,14.57c1.77,0,3.21,1.4,3.21,3.13s-1.44,3.13-3.21,3.13-3.21-1.4-3.21-3.13,1.44-3.13,3.21-3.13"/><path class="cls-2" d="M19.13,20.27c-1.69,1.69-3.97,2.6-6.38,2.6-4.94,0-8.53-3.78-8.53-8.96S7.8,4.93,12.74,4.93c1.19,0,2.33.22,3.43.67,1.1.45,2.08,1.08,2.93,1.91l.67.66,2.96-2.88-.65-.66c-2.46-2.46-5.78-3.8-9.35-3.8C5.47.82,0,6.45,0,13.93s5.49,13.07,12.74,13.07c3.59,0,6.91-1.36,9.37-3.82l.65-.66-2.94-2.93-.7.68h0Z"/></svg>